# File created by Blade
# Date/Time:  Wed Jan 21 17:16:23 2015
# Frame Rate: 120.000 fps
#------------------------------------------------------
:FULLY-SPECIFIED
:DEGREES
1038
root 21.780608 6.161650 -15.462640 -178.357077 -15.972561 -219.734359
Spine 39.188284 -3.956169 -35.716634
Head 32.577136 54.710283 0.145760
LeftShoulder -6.784422 -24.903858 -5.108737
LeftArm 10.645346 45.812644 -56.005767
LeftForeArm 47.167168 -0.000000 79.228838
LeftHand -12.722517 0.000000 -1.302218
LeftHandThumb1 -26.253704 0.000000 33.147579
RightShoulder -2.940829 -14.906274 -2.234778
RightArm 8.868191 -13.119465 75.542809
RightForeArm -39.860361 -0.000000 52.939970
RightHand -11.630764 -0.000000 -6.866657
RightHandThumb1 -24.326973 -0.000000 -32.862282
LeftUpLeg 5.745727 25.720519 29.259694
LeftLeg 137.581266 -0.000000 -0.000000
LeftFoot 45.832585 6.463404 24.882244
LeftToeBase 2.359990 -0.000000 -0.000000
RightUpLeg -119.411448 -12.405456 46.142956
RightLeg 141.034247 -0.000000 -0.000000
RightFoot 30.457117 -24.811620 14.332785
RightToeBase 32.532862 -0.000000 -0.000000
1039
root 21.785173 6.160153 -15.452137 -178.384787 -16.016876 -219.744277
Spine 39.307839 -3.838944 -35.649513
Head 32.286555 55.034354 -0.163056
LeftShoulder -7.178853 -24.751143 -4.890194
LeftArm 9.639371 45.293522 -56.286947
LeftForeArm 47.068100 -0.000000 81.760042
LeftHand -13.223675 -0.000000 -0.254718
LeftHandThumb1 -26.253704 0.000000 33.147579
RightShoulder -2.929930 -14.831063 -2.365867
RightArm 8.783991 -13.162622 75.673833
RightForeArm -39.672756 0.000000 52.881036
RightHand -11.631673 0.000000 -6.979575
RightHandThumb1 -24.326973 -0.000000 -32.862282
LeftUpLeg 5.685915 25.659996 29.219004
LeftLeg 137.614773 -0.000000 -0.000000
LeftFoot 45.856504 6.440502 24.798520
LeftToeBase 2.595687 -0.000000 -0.000000
RightUpLeg -119.396746 -12.429070 46.212010
RightLeg 140.893973 -0.000000 -0.000000
RightFoot 30.121635 -24.858559 14.462900
RightToeBase 32.396140 -0.000000 -0.000000
1040
root 21.793530 6.158622 -15.441721 -178.402851 -16.065563 -219.734850
Spine 39.419070 -3.694896 -35.537410
Head 32.020348 55.314310 -0.465073
LeftShoulder -7.627881 -24.494514 -4.623960
LeftArm 8.765068 44.590298 -56.522471
LeftForeArm 46.484632 -0.000000 84.307710
LeftHand -13.305847 0.000000 -0.192562
LeftHandThumb1 -26.253704 0.000000 33.147579
RightShoulder -2.944436 -14.867171 -2.467327
RightArm 8.802777 -13.211582 75.755112
RightForeArm -39.452587 -0.000000 52.815171
RightHand -11.662045 0.000000 -7.216460
RightHandThumb1 -24.326973 -0.000000 -32.862282
LeftUpLeg 5.596936 25.607267 29.196031
LeftLeg 137.660932 -0.000000 -0.000000
LeftFoot 45.812680 6.364761 24.778712
LeftToeBase 2.487965 -0.000000 -0.000000
RightUpLeg -119.385362 -12.431644 46.328264
RightLeg 140.734433 -0.000000 -0.000000
RightFoot 29.639575 -24.940950 14.608260
RightToeBase 32.269781 -0.000000 -0.000000
1041
root 21.798503 6.159913 -15.434192 -178.426266 -16.111232 -219.760258
Spine 39.547375 -3.529484 -35.470297
Head 31.758509 55.577534 -0.734440
LeftShoulder -8.102079 -24.393530 -4.300906
LeftArm 7.567890 43.825349 -57.017614
LeftForeArm 46.263188 -0.000000 86.886752
LeftHand -13.756914 -0.000000 -0.503498
LeftHandThumb1 -26.253704 0.000000 33.147579
RightShoulder -2.896653 -14.864068 -2.548096
RightArm 8.722042 -13.261227 75.792588
RightForeArm -39.212547 -0.000000 52.807239
RightHand -11.647236 -0.000000 -7.380548
RightHandThumb1 -24.326973 -0.000000 -32.862282
LeftUpLeg 5.548287 25.556383 29.144428
LeftLeg 137.686629 -0.000000 -0.000000
LeftFoot 45.793363 6.327843 24.759823
LeftToeBase 2.465103 -0.000000 -0.000000
RightUpLeg -119.380714 -12.452284 46.389237
RightLeg 140.595581 -0.000000 -0.000000
RightFoot 29.143784 -25.014128 14.799604
RightToeBase 32.098692 -0.000000 -0.000000
1042
root 21.802112 6.163588 -15.427232 -178.450503 -16.199747 -219.795707
Spine 39.704962 -3.400418 -35.403250
Head 31.590651 55.854662 -0.949151
LeftShoulder -8.619569 -24.153991 -3.892690
LeftArm 6.426101 42.854070 -57.519741
LeftForeArm 45.532288 -0.000000 89.367096
LeftHand -14.008584 -0.000000 -0.812747
LeftHandThumb1 -26.253704 0.000000 33.147579
RightShoulder -2.830401 -14.820793 -2.629804
RightArm 8.589788 -13.300890 75.844933
RightForeArm -39.009566 0.000000 52.779111
RightHand -11.637306 -0.000000 -7.606175
RightHandThumb1 -24.326973 -0.000000 -32.862282
LeftUpLeg 5.471775 25.480145 29.052617
LeftLeg 137.715181 -0.000000 -0.000000
LeftFoot 45.776612 6.313837 24.733226
LeftToeBase 2.559684 -0.000000 -0.000000
RightUpLeg -119.406964 -12.507234 46.447250
RightLeg 140.452751 -0.000000 -0.000000
RightFoot 28.699526 -25.218994 15.026169
RightToeBase 32.008479 -0.000000 -0.000000
1043
root 21.809985 6.161783 -15.424157 -178.454559 -16.214587 -219.785915
Spine 39.766017 -3.185161 -35.260878
Head 31.504116 56.056897 -1.083936
LeftShoulder -9.069226 -23.842325 -3.564661
LeftArm 5.298855 41.637205 -58.026962
LeftForeArm 45.275833 0.000000 91.651012
LeftHand -14.298638 -0.000000 -0.913402
LeftHandThumb1 -26.253704 0.000000 33.147579
RightShoulder -2.792365 -14.885625 -2.681882
RightArm 8.522418 -13.342692 75.844249
RightForeArm -38.803144 -0.000000 52.747017
RightHand -11.651167 0.000000 -7.851322
RightHandThumb1 -24.326973 -0.000000 -32.862282
LeftUpLeg 5.438045 25.459340 29.065888
LeftLeg 137.727003 -0.000000 -0.000000
LeftFoot 45.771782 6.313704 24.753620
LeftToeBase 2.686792 -0.000000 -0.000000
RightUpLeg -119.383320 -12.467388 46.522509
RightLeg 140.314315 -0.000000 -0.000000
RightFoot 28.241512 -25.508261 15.299703
RightToeBase 32.231827 -0.000000 -0.000000
1044
root 21.813736 6.161606 -15.417728 -178.421891 -16.314781 -219.844495
Spine 39.867704 -2.992703 -35.145175
Head 31.451847 56.241406 -1.188540
LeftShoulder -9.436213 -23.608651 -3.234737
LeftArm 3.904597 40.193732 -58.692182
LeftForeArm 44.734317 -0.000000 93.883485
LeftHand -14.748753 -0.000000 -1.567091
LeftHandThumb1 -26.253704 0.000000 33.147579
RightShoulder -2.821809 -14.926948 -2.730542
RightArm 8.437070 -13.461676 75.843829
RightForeArm -38.665333 -0.000000 52.610161
RightHand -11.502143 -0.000000 -8.345297
RightHandThumb1 -24.326973 -0.000000 -32.862282
LeftUpLeg 5.300801 25.401446 28.946907
LeftLeg 137.763910 -0.000000 -0.000000
LeftFoot 45.759373 6.311229 24.723416
LeftToeBase 2.702781 -0.000000 -0.000000
RightUpLeg -119.430974 -12.586324 46.403196
RightLeg 139.932503 -0.000000 -0.000000
RightFoot 28.920058 -25.367287 14.895899
RightToeBase 33.249335 -0.000000 -0.000000
1045
root 21.817616 6.164507 -15.412522 -178.399584 -16.355279 -219.873062
Spine 39.950410 -2.749499 -34.975369
Head 31.291040 56.357246 -1.427699
LeftShoulder -9.812902 -23.379131 -2.940364
LeftArm 2.538260 38.617373 -59.196071
LeftForeArm 43.620598 0.000000 95.879659
LeftHand -14.933746 0.000000 -1.853615
LeftHandThumb1 -26.253704 0.000000 33.147579
RightShoulder -2.822206 -14.984637 -2.776813
RightArm 8.346003 -13.557748 75.800110
RightForeArm -38.263818 0.000000 52.628980
RightHand -11.628893 -0.000000 -8.574512
RightHandThumb1 -24.326973 -0.000000 -32.862282
LeftUpLeg 5.233682 25.377967 28.876737
LeftLeg 137.780155 -0.000000 -0.000000
LeftFoot 45.736221 6.306810 24.747681
LeftToeBase 2.907293 -0.000000 -0.000000
RightUpLeg -119.418200 -12.614423 46.354278
RightLeg 139.820085 -0.000000 -0.000000
RightFoot 28.683802 -25.299803 15.101011
RightToeBase 33.477082 -0.000000 -0.000000
